<svg viewBox="0 0 128 128" xmlns="http://www.w3.org/2000/svg">
  <circle cx="64" cy="64" r="64" fill="#2775CA"/>
  <path d="M64 112c-26.5 0-48-21.5-48-48s21.5-48 48-48 48 21.5 48 48-21.5 48-48 48zm0-88c-22.1 0-40 17.9-40 40s17.9 40 40 40 40-17.9 40-40-17.9-40-40-40z" fill="#fff"/>
  <path d="M68 54c0-2.2-1.8-4-4-4s-4 1.8-4 4v2c-5.5 1-9.6 5.8-9.6 11.5 0 6.4 5.2 11.5 11.6 11.5h4c2 0 3.6 1.6 3.6 3.5s-1.6 3.5-3.6 3.5h-8c-2 0-3.6-1.6-3.6-3.5 0-2.2-1.8-4-4-4s-4 1.8-4 4c0 5.7 4.1 10.5 9.6 11.5v2c0 2.2 1.8 4 4 4s4-1.8 4-4v-2c5.5-1 9.6-5.8 9.6-11.5 0-6.4-5.2-11.5-11.6-11.5h-4c-2 0-3.6-1.6-3.6-3.5s1.6-3.5 3.6-3.5h8c2 0 3.6 1.6 3.6 3.5 0 2.2 1.8 4 4 4s4-1.8 4-4c0-5.7-4.1-10.5-9.6-11.5v-2z" fill="#fff"/>
</svg>
